<svg width="13" height="14" viewBox="0 0 13 14" fill="none" xmlns="http://www.w3.org/2000/svg">
<path d="M5.54894 1.92705C5.8483 1.00574 7.1517 1.00574 7.45106 1.92705L8.18386 4.18237C8.31773 4.5944 8.70169 4.87336 9.13491 4.87336L11.5063 4.87336C12.475 4.87336 12.8778 6.11297 12.0941 6.68237L10.1756 8.07624C9.8251 8.33088 9.67845 8.78225 9.81232 9.19427L10.5451 11.4496C10.8445 12.3709 9.78999 13.137 9.00628 12.5676L7.08778 11.1738C6.7373 10.9191 6.2627 10.9191 5.91221 11.1738L3.99372 12.5676C3.21001 13.137 2.15553 12.3709 2.45488 11.4496L3.18768 9.19427C3.32155 8.78225 3.1749 8.33088 2.82441 8.07624L0.905917 6.68237C0.122203 6.11297 0.524979 4.87336 1.4937 4.87336L3.86509 4.87336C4.29832 4.87336 4.68227 4.5944 4.81614 4.18237L5.54894 1.92705Z" stroke="#D6DCE2"/>
</svg>
