<svg width="13" height="16" viewBox="0 0 13 16" fill="none" xmlns="http://www.w3.org/2000/svg">
<mask id="mask0_182_104" style="mask-type:luminance" maskUnits="userSpaceOnUse" x="0" y="0" width="13" height="16">
<path d="M4.56016 15.9919C2.62563 15.9919 0.5 13.4922 0.5 10.7946C0.5 7.99597 2.05058 6.25084 2.05058 6.25084C2.05058 7.64533 2.67806 8.71788 3.58504 8.71788C3.13718 7.80737 3.00206 7.01623 3.00206 6.44821C3.00206 2.84719 7.4476 2.19172 7.4476 0C7.4476 0 8.79582 0.93319 8.79582 1.99897C8.79582 3.21198 8.42911 2.64784 8.42911 4.3147C8.42911 5.54842 10.8847 6.3501 10.8847 7.82883C10.8847 8.6154 10.5095 9.68366 10.1918 10.0014C11.2779 10.0014 11.7444 8.01103 11.7444 7.44621C12.0826 8.05191 12.494 8.8776 12.494 10.7446C12.494 13.0194 11.0682 15.9919 8.22367 15.9919C8.22367 15.9919 10.3951 14.8556 10.3951 12.9934C10.3951 11.8182 9.89915 11.4481 9.59192 11.1409C9.55728 12.5286 9.10174 13.308 8.24782 13.308C7.71374 13.308 6.94678 12.5603 6.94678 11.7441C6.94678 11.0159 8.0462 10.5032 8.0462 8.9955C8.0462 7.12095 6.34708 6.44678 6.34708 6.44678C6.53933 6.79388 6.68937 7.14871 6.68937 7.99597C6.68937 9.48557 4.49803 9.90014 4.49803 11.3943C4.49803 12.2074 4.87254 13.1019 4.87254 13.1019C4.30367 13.1019 3.29863 12.1943 3.29863 10.9945C3.05449 11.2997 2.59895 11.6306 2.59895 12.6936C2.59895 14.3312 4.56016 15.9919 4.56016 15.9919Z" fill="white"/>
</mask>
<g mask="url(#mask0_182_104)">
<mask id="mask1_182_104" style="mask-type:luminance" maskUnits="userSpaceOnUse" x="0" y="0" width="13" height="16">
<path d="M4.56016 15.9919C2.62563 15.9919 0.5 13.4922 0.5 10.7946C0.5 7.99597 2.05058 6.25084 2.05058 6.25084C2.05058 7.64533 2.67806 8.71788 3.58504 8.71788C3.13718 7.80737 3.00206 7.01623 3.00206 6.44821C3.00206 2.84719 7.4476 2.19172 7.4476 0C7.4476 0 8.79582 0.93319 8.79582 1.99897C8.79582 3.21198 8.42911 2.64784 8.42911 4.3147C8.42911 5.54842 10.8847 6.3501 10.8847 7.82883C10.8847 8.6154 10.5095 9.68366 10.1918 10.0014C11.2779 10.0014 11.7444 8.01103 11.7444 7.44621C12.0826 8.05191 12.494 8.8776 12.494 10.7446C12.494 13.0194 11.0682 15.9919 8.22367 15.9919C8.22367 15.9919 10.3951 14.8556 10.3951 12.9934C10.3951 11.8182 9.89915 11.4481 9.59192 11.1409C9.55728 12.5286 9.10174 13.308 8.24782 13.308C7.71374 13.308 6.94678 12.5603 6.94678 11.7441C6.94678 11.0159 8.0462 10.5032 8.0462 8.9955C8.0462 7.12095 6.34708 6.44678 6.34708 6.44678C6.53933 6.79388 6.68937 7.14871 6.68937 7.99597C6.68937 9.48557 4.49803 9.90014 4.49803 11.3943C4.49803 12.2074 4.87254 13.1019 4.87254 13.1019C4.30367 13.1019 3.29863 12.1943 3.29863 10.9945C3.05449 11.2997 2.59895 11.6306 2.59895 12.6936C2.59895 14.3312 4.56016 15.9919 4.56016 15.9919Z" fill="white"/>
</mask>
<g mask="url(#mask1_182_104)">
<path d="M12.494 0H0.5V15.9919H12.494V0Z" fill="url(#paint0_linear_182_104)"/>
</g>
</g>
<defs>
<linearGradient id="paint0_linear_182_104" x1="6.497" y1="0" x2="6.497" y2="15.9919" gradientUnits="userSpaceOnUse">
<stop stop-color="#5662FF"/>
<stop offset="1" stop-color="#46DAFF"/>
</linearGradient>
</defs>
</svg>
