<svg width="15" height="14" viewBox="0 0 15 14" fill="none" xmlns="http://www.w3.org/2000/svg">
<path fill-rule="evenodd" clip-rule="evenodd" d="M12.1947 1.15358C11.3284 0.433215 10.2148 0 9 0H5C2.23858 0 0 2.23858 0 5V9C0 11.7614 2.23858 14 5 14H9C11.7614 14 14 11.7614 14 9V5C14 4.56794 13.9452 4.14867 13.8422 3.74878L12.5 5.09091V9C12.5 10.933 10.933 12.5 9 12.5H5C3.067 12.5 1.5 10.933 1.5 9V5C1.5 3.067 3.067 1.5 5 1.5H9C9.80036 1.5 10.538 1.76865 11.1276 2.22069L12.1947 1.15358Z" fill="#7AB3D6"/>
<path d="M4 5.46967L7 8.46967" stroke="#7AB3D6" stroke-width="1.5" stroke-linecap="round"/>
<path d="M14 1.46948L6.9998 8.46968" stroke="#7AB3D6" stroke-width="1.5" stroke-linecap="round"/>
</svg>
