<svg width="3" height="15" viewBox="0 0 3 15" fill="none" xmlns="http://www.w3.org/2000/svg">
<path d="M1.49586 14.15C1.10279 14.15 0.767721 14.0101 0.490637 13.7302C0.213554 13.4504 0.0750122 13.1139 0.0750122 12.7208C0.0750122 12.3278 0.214939 11.9927 0.494793 11.7156C0.774647 11.4385 1.11111 11.3 1.50417 11.3C1.89723 11.3 2.2323 11.4399 2.50939 11.7198C2.78647 11.9996 2.92501 12.3361 2.92501 12.7292C2.92501 13.1222 2.78508 13.4573 2.50523 13.7344C2.22538 14.0115 1.88892 14.15 1.49586 14.15ZM1.49586 9.40001C1.10279 9.40001 0.767721 9.26034 0.490637 8.98102C0.213554 8.70182 0.0750122 8.36609 0.0750122 7.97382V2.26946C0.0750122 1.87732 0.214939 1.54271 0.494793 1.26563C0.774647 0.988548 1.11111 0.850006 1.50417 0.850006C1.89723 0.850006 2.2323 0.989669 2.50939 1.269C2.78647 1.54819 2.92501 1.88392 2.92501 2.27619V7.98055C2.92501 8.37269 2.78508 8.7073 2.50523 8.98438C2.22538 9.26146 1.88892 9.40001 1.49586 9.40001Z" fill="#DA6C5E"/>
</svg>
