<svg width="14" height="8" viewBox="0 0 14 8" fill="none" xmlns="http://www.w3.org/2000/svg">
<path d="M1.37495 7.59999C1.1837 7.59999 1.02339 7.53568 0.894014 7.40706C0.764639 7.27843 0.699951 7.11906 0.699951 6.92893C0.699951 6.73881 0.764639 6.57812 0.894014 6.44687C1.02339 6.31562 1.1837 6.24999 1.37495 6.24999H9.92495C10.1162 6.24999 10.2765 6.31431 10.4059 6.44293C10.5353 6.57156 10.6 6.73093 10.6 6.92106C10.6 7.11118 10.5353 7.27187 10.4059 7.40312C10.2765 7.53437 10.1162 7.59999 9.92495 7.59999H1.37495ZM2.72495 4.67499C2.5337 4.67499 2.37339 4.61068 2.24401 4.48206C2.11464 4.35343 2.04995 4.19406 2.04995 4.00393C2.04995 3.81381 2.11464 3.65312 2.24401 3.52187C2.37339 3.39062 2.5337 3.32499 2.72495 3.32499H11.275C11.4662 3.32499 11.6265 3.38931 11.7559 3.51793C11.8853 3.64656 11.95 3.80593 11.95 3.99606C11.95 4.18618 11.8853 4.34687 11.7559 4.47812C11.6265 4.60937 11.4662 4.67499 11.275 4.67499H2.72495ZM4.07495 1.74999C3.8837 1.74999 3.72339 1.68568 3.59401 1.55706C3.46464 1.42843 3.39995 1.26906 3.39995 1.07893C3.39995 0.888807 3.46464 0.728119 3.59401 0.596869C3.72339 0.465619 3.8837 0.399994 4.07495 0.399994H12.625C12.8162 0.399994 12.9765 0.464306 13.1059 0.592931C13.2353 0.721556 13.3 0.880931 13.3 1.07106C13.3 1.26118 13.2353 1.42187 13.1059 1.55312C12.9765 1.68437 12.8162 1.74999 12.625 1.74999H4.07495Z" fill="#BABDBF"/>
</svg>
