<svg width="12" height="14" viewBox="0 0 12 14" fill="none" xmlns="http://www.w3.org/2000/svg">
<path d="M2.84998 13.3C2.47873 13.3 2.16091 13.1678 1.89654 12.9034C1.63216 12.6391 1.49998 12.3212 1.49998 11.95V2.95H1.27498C1.08373 2.95 0.923413 2.88569 0.794038 2.75706C0.664663 2.62844 0.599976 2.46906 0.599976 2.27893C0.599976 2.08881 0.664663 1.92812 0.794038 1.79687C0.923413 1.66562 1.08373 1.6 1.27498 1.6H4.19998V1.375C4.19998 1.18375 4.26466 1.02343 4.39404 0.894059C4.52341 0.764684 4.68373 0.699997 4.87498 0.699997H7.12498C7.31623 0.699997 7.47654 0.764684 7.60591 0.894059C7.73529 1.02343 7.79998 1.18375 7.79998 1.375V1.6H10.725C10.9162 1.6 11.0765 1.66431 11.2059 1.79293C11.3353 1.92156 11.4 2.08093 11.4 2.27106C11.4 2.46118 11.3353 2.62187 11.2059 2.75312C11.0765 2.88437 10.9162 2.95 10.725 2.95H10.5V11.9419C10.5 12.3223 10.3678 12.6437 10.1034 12.9062C9.83904 13.1687 9.52122 13.3 9.14997 13.3H2.84998ZM9.14997 2.95H2.84998V11.95H9.14997V2.95ZM4.87104 10.6C5.06116 10.6 5.22185 10.5353 5.3531 10.4059C5.48435 10.2766 5.54998 10.1162 5.54998 9.925V4.975C5.54998 4.78375 5.48566 4.62343 5.35704 4.49406C5.22841 4.36468 5.06904 4.3 4.87891 4.3C4.68879 4.3 4.5281 4.36468 4.39685 4.49406C4.2656 4.62343 4.19998 4.78375 4.19998 4.975V9.925C4.19998 10.1162 4.26429 10.2766 4.39291 10.4059C4.52154 10.5353 4.68091 10.6 4.87104 10.6ZM7.12104 10.6C7.31116 10.6 7.47185 10.5353 7.6031 10.4059C7.73435 10.2766 7.79998 10.1162 7.79998 9.925V4.975C7.79998 4.78375 7.73566 4.62343 7.60704 4.49406C7.47841 4.36468 7.31904 4.3 7.12891 4.3C6.93879 4.3 6.7781 4.36468 6.64685 4.49406C6.5156 4.62343 6.44998 4.78375 6.44998 4.975V9.925C6.44998 10.1162 6.51429 10.2766 6.64291 10.4059C6.77154 10.5353 6.93091 10.6 7.12104 10.6Z" fill="#5F6368"/>
</svg>
